<svg width="8" height="8" viewBox="0 0 8 8" fill="none" xmlns="http://www.w3.org/2000/svg">
<path fill-rule="evenodd" clip-rule="evenodd" d="M4 0.871287C2.27206 0.871287 0.871287 2.27206 0.871287 4C0.871287 5.72794 2.27206 7.12871 4 7.12871C5.72794 7.12871 7.12871 5.72794 7.12871 4C7.12871 2.27206 5.72794 0.871287 4 0.871287ZM0 4C0 1.79086 1.79086 0 4 0C6.20914 0 8 1.79086 8 4C8 6.20914 6.20914 8 4 8C1.79086 8 0 6.20914 0 4ZM4 3.56436C4.2406 3.56436 4.43564 3.7594 4.43564 4V5.42574C4.43564 5.66634 4.2406 5.86139 4 5.86139C3.7594 5.86139 3.56436 5.66634 3.56436 5.42574V4C3.56436 3.7594 3.7594 3.56436 4 3.56436ZM4 2.13861C3.7594 2.13861 3.56436 2.33366 3.56436 2.57426C3.56436 2.81486 3.7594 3.0099 4 3.0099H4.00376C4.24436 3.0099 4.43941 2.81486 4.43941 2.57426C4.43941 2.33366 4.24436 2.13861 4.00376 2.13861H4Z" fill="#536475"/>
</svg>
