<svg width="44" height="24" viewBox="0 0 44 24" fill="none" xmlns="http://www.w3.org/2000/svg">
<path d="M6.33889 12.9796L1.31848 0H3.64501L7.80828 10.7755H14.4205L18.8287 22.7755L18.3389 24L16.992 23.5102L12.9511 12.9796H6.33889Z" fill="#FC3259"/>
<path d="M20.2041 1.22449L16.6594 10.7755H14.4205L18.3673 0.489796L19.7143 0L20.2041 1.22449Z" fill="#536475"/>
<path d="M0 24L4.23143 12.9796H6.61225L2.43185 24H0Z" fill="#536475"/>
<path d="M29.6043 11.0204L24.5839 24H26.9104L31.0737 13.2245H37.6859L42.0941 1.22449L41.6043 0L40.2573 0.489796L36.2165 11.0204H29.6043Z" fill="#1CB85C"/>
<path d="M43.4695 22.7755L39.9248 13.2245H37.6859L41.6327 23.5102L42.9797 24L43.4695 22.7755Z" fill="#536475"/>
<path d="M23.2654 0L27.4968 11.0204H29.8776L25.6972 0H23.2654Z" fill="#536475"/>
</svg>
