<svg width="524" height="103" viewBox="0 0 524 103" fill="none" xmlns="http://www.w3.org/2000/svg">
<path fill-rule="evenodd" clip-rule="evenodd" d="M493.403 60.0464C491.952 58.3611 490.043 57.5184 487.675 57.5184C485.221 57.5184 483.216 58.3184 481.659 59.9184C480.101 61.5184 479.323 63.5131 479.323 65.9024C479.323 68.3344 480.112 70.3398 481.691 71.9184C483.269 73.4971 485.317 74.2864 487.835 74.2864C489.392 74.2864 490.779 73.9558 491.995 73.2944C493.211 72.6331 494.171 71.7371 494.875 70.6064L493.019 69.5184C492.571 70.3291 491.899 70.9904 491.003 71.5024C490.128 71.9931 489.083 72.2384 487.867 72.2384C486.16 72.2384 484.72 71.7691 483.547 70.8304C482.395 69.8704 481.712 68.5798 481.499 66.9584H495.547C495.589 66.5318 495.611 66.2011 495.611 65.9664C495.611 63.6838 494.875 61.7104 493.403 60.0464ZM483.483 61.0704C484.613 60.0678 486.011 59.5664 487.675 59.5664C489.125 59.5664 490.395 60.0358 491.483 60.9744C492.571 61.9131 493.221 63.2251 493.435 64.9104H481.499C481.712 63.3318 482.373 62.0518 483.483 61.0704Z" fill="#566775"/>
<path d="M415.408 101.902V78.5424H417.52V101.902H415.408Z" fill="#566775"/>
<path d="M457.501 78.5424V101.902H459.613V78.5424H457.501Z" fill="#566775"/>
<path d="M488.311 87.9504H492.919V85.9024H488.311V81.4224L486.199 82.0624V85.9024H482.839V87.9504H486.199V97.6464C486.199 99.5024 486.754 100.761 487.863 101.422C488.994 102.084 490.679 102.244 492.919 101.902V100.046C491.895 100.089 491.042 100.11 490.359 100.11C489.676 100.089 489.164 99.8971 488.823 99.5344C488.482 99.1504 488.311 98.5211 488.311 97.6464V87.9504Z" fill="#566775"/>
<path fill-rule="evenodd" clip-rule="evenodd" d="M508.878 99.8864C507.257 101.486 505.273 102.286 502.926 102.286C500.58 102.286 498.585 101.486 496.942 99.8864C495.321 98.2651 494.51 96.2704 494.51 93.9024C494.51 91.5344 495.321 89.5504 496.942 87.9504C498.585 86.3291 500.58 85.5184 502.926 85.5184C505.273 85.5184 507.257 86.3291 508.878 87.9504C510.521 89.5504 511.342 91.5344 511.342 93.9024C511.342 96.2704 510.521 98.2651 508.878 99.8864ZM498.446 98.4144C499.662 99.6304 501.156 100.238 502.926 100.238C504.697 100.238 506.19 99.6304 507.406 98.4144C508.622 97.1771 509.23 95.6731 509.23 93.9024C509.23 92.1318 508.622 90.6384 507.406 89.4224C506.19 88.1851 504.697 87.5664 502.926 87.5664C501.156 87.5664 499.662 88.1851 498.446 89.4224C497.23 90.6384 496.622 92.1318 496.622 93.9024C496.622 95.6731 497.23 97.1771 498.446 98.4144Z" fill="#566775"/>
<path d="M516.988 88.5584C517.97 86.6171 519.655 85.6464 522.044 85.6464V87.6944C520.594 87.6944 519.388 88.1211 518.428 88.9744C517.468 89.8278 516.988 91.1718 516.988 93.0064V101.902H514.876V85.9024H516.988V88.5584Z" fill="#566775"/>
<path fill-rule="evenodd" clip-rule="evenodd" d="M477.855 85.9024H479.967V101.902H477.855V98.7664C476.383 101.113 474.229 102.286 471.391 102.286C469.109 102.286 467.157 101.476 465.535 99.8544C463.935 98.2331 463.135 96.2491 463.135 93.9024C463.135 91.5558 463.935 89.5718 465.535 87.9504C467.157 86.3291 469.109 85.5184 471.391 85.5184C474.229 85.5184 476.383 86.6918 477.855 89.0384V85.9024ZM467.071 98.4144C468.287 99.6304 469.781 100.238 471.551 100.238C473.322 100.238 474.815 99.6304 476.031 98.4144C477.247 97.1771 477.855 95.6731 477.855 93.9024C477.855 92.1318 477.247 90.6384 476.031 89.4224C474.815 88.1851 473.322 87.5664 471.551 87.5664C469.781 87.5664 468.287 88.1851 467.071 89.4224C465.855 90.6384 465.247 92.1318 465.247 93.9024C465.247 95.6731 465.855 97.1771 467.071 98.4144Z" fill="#566775"/>
<path d="M450.922 85.9025H453.034V101.902H450.922V99.4065C449.727 101.326 447.935 102.286 445.546 102.286C443.604 102.286 442.068 101.7 440.938 100.526C439.828 99.3318 439.274 97.7318 439.274 95.7265V85.9025H441.386V95.7265C441.386 97.1558 441.759 98.2651 442.506 99.0545C443.274 99.8438 444.351 100.238 445.738 100.238C447.274 100.238 448.522 99.7585 449.482 98.7985C450.442 97.8171 450.922 96.3131 450.922 94.2865V85.9025Z" fill="#566775"/>
<path d="M423.442 99.8864C425.042 101.486 427.047 102.286 429.458 102.286C431.015 102.286 432.434 101.913 433.714 101.166C434.994 100.42 435.964 99.4064 436.626 98.1264L434.866 97.1024C434.332 98.0624 433.596 98.8304 432.658 99.4064C431.719 99.9611 430.652 100.238 429.458 100.238C427.687 100.238 426.194 99.6304 424.978 98.4144C423.762 97.1771 423.154 95.6731 423.154 93.9024C423.154 92.1318 423.762 90.6384 424.978 89.4224C426.194 88.1851 427.687 87.5664 429.458 87.5664C430.652 87.5664 431.719 87.8544 432.658 88.4304C433.618 88.9851 434.311 89.7424 434.738 90.7024L436.466 89.7104C435.89 88.4304 434.972 87.4171 433.714 86.6704C432.455 85.9024 431.036 85.5184 429.458 85.5184C427.047 85.5184 425.042 86.3291 423.442 87.9504C421.842 89.5504 421.042 91.5344 421.042 93.9024C421.042 96.2704 421.842 98.2651 423.442 99.8864Z" fill="#566775"/>
<path fill-rule="evenodd" clip-rule="evenodd" d="M410.936 85.9024H408.824V89.0384C407.352 86.6918 405.197 85.5184 402.36 85.5184C400.077 85.5184 398.125 86.3291 396.504 87.9504C394.904 89.5718 394.104 91.5558 394.104 93.9024C394.104 96.2491 394.904 98.2331 396.504 99.8544C398.125 101.476 400.077 102.286 402.36 102.286C405.197 102.286 407.352 101.113 408.824 98.7664V101.902H410.936V85.9024ZM402.52 100.238C400.749 100.238 399.256 99.6304 398.04 98.4144C396.824 97.1771 396.216 95.6731 396.216 93.9024C396.216 92.1318 396.824 90.6384 398.04 89.4224C399.256 88.1851 400.749 87.5664 402.52 87.5664C404.291 87.5664 405.784 88.1851 407 89.4224C408.216 90.6384 408.824 92.1318 408.824 93.9024C408.824 95.6731 408.216 97.1771 407 98.4144C405.784 99.6304 404.291 100.238 402.52 100.238Z" fill="#566775"/>
<path d="M385.02 102.286C382.609 102.286 380.604 101.486 379.004 99.8864C377.404 98.2651 376.604 96.2704 376.604 93.9024C376.604 91.5344 377.404 89.5504 379.004 87.9504C380.604 86.3291 382.609 85.5184 385.02 85.5184C386.599 85.5184 388.017 85.9024 389.276 86.6704C390.535 87.4171 391.452 88.4304 392.028 89.7104L390.3 90.7024C389.873 89.7424 389.18 88.9851 388.22 88.4304C387.281 87.8544 386.215 87.5664 385.02 87.5664C383.249 87.5664 381.756 88.1851 380.54 89.4224C379.324 90.6384 378.716 92.1318 378.716 93.9024C378.716 95.6731 379.324 97.1771 380.54 98.4144C381.756 99.6304 383.249 100.238 385.02 100.238C386.215 100.238 387.281 99.9611 388.22 99.4064C389.159 98.8304 389.895 98.0624 390.428 97.1024L392.188 98.1264C391.527 99.4064 390.556 100.42 389.276 101.166C387.996 101.913 386.577 102.286 385.02 102.286Z" fill="#566775"/>
<path d="M468.524 71.8545H477.74V73.9025H465.58V72.4945L474.476 59.9505H465.9V57.9025H477.42V59.3105L468.524 71.8545Z" fill="#566775"/>
<path fill-rule="evenodd" clip-rule="evenodd" d="M461.622 60.0464C460.171 58.3611 458.262 57.5184 455.894 57.5184C453.44 57.5184 451.435 58.3184 449.878 59.9184C448.32 61.5184 447.542 63.5131 447.542 65.9024C447.542 68.3344 448.331 70.3398 449.91 71.9184C451.488 73.4971 453.536 74.2864 456.054 74.2864C457.611 74.2864 458.998 73.9558 460.214 73.2944C461.43 72.6331 462.39 71.7371 463.094 70.6064L461.238 69.5184C460.79 70.3291 460.118 70.9904 459.222 71.5024C458.347 71.9931 457.302 72.2384 456.086 72.2384C454.379 72.2384 452.939 71.7691 451.766 70.8304C450.614 69.8704 449.931 68.5798 449.718 66.9584H463.766C463.808 66.5318 463.83 66.2011 463.83 65.9664C463.83 63.6838 463.094 61.7104 461.622 60.0464ZM451.702 61.0704C452.832 60.0678 454.23 59.5664 455.894 59.5664C457.344 59.5664 458.614 60.0358 459.702 60.9744C460.79 61.9131 461.44 63.2251 461.654 64.9104H449.718C449.931 63.3318 450.592 62.0518 451.702 61.0704Z" fill="#566775"/>
<path fill-rule="evenodd" clip-rule="evenodd" d="M437.206 57.5184C439.574 57.5184 441.483 58.3611 442.934 60.0464C444.406 61.7104 445.142 63.6838 445.142 65.9664C445.142 66.2011 445.121 66.5318 445.078 66.9584H431.03C431.243 68.5798 431.926 69.8704 433.078 70.8304C434.251 71.7691 435.691 72.2384 437.398 72.2384C438.614 72.2384 439.659 71.9931 440.534 71.5024C441.43 70.9904 442.102 70.3291 442.55 69.5184L444.406 70.6064C443.702 71.7371 442.742 72.6331 441.526 73.2944C440.31 73.9558 438.923 74.2864 437.366 74.2864C434.849 74.2864 432.801 73.4971 431.222 71.9184C429.643 70.3398 428.854 68.3344 428.854 65.9024C428.854 63.5131 429.633 61.5184 431.19 59.9184C432.747 58.3184 434.753 57.5184 437.206 57.5184ZM437.206 59.5664C435.542 59.5664 434.145 60.0678 433.014 61.0704C431.905 62.0518 431.243 63.3318 431.03 64.9104H442.966C442.753 63.2251 442.102 61.9131 441.014 60.9744C439.926 60.0358 438.657 59.5664 437.206 59.5664Z" fill="#566775"/>
<path d="M425.346 57.9025H423.234V66.2865C423.234 68.3131 422.754 69.8171 421.794 70.7985C420.834 71.7585 419.586 72.2385 418.05 72.2385C416.664 72.2385 415.586 71.8438 414.818 71.0545C414.072 70.2651 413.698 69.1558 413.698 67.7265V57.9025H411.586V67.7265C411.586 69.7318 412.141 71.3318 413.25 72.5265C414.381 73.6998 415.917 74.2865 417.858 74.2865C420.248 74.2865 422.04 73.3265 423.234 71.4065V73.9025H425.346V57.9025Z" fill="#566775"/>
<path fill-rule="evenodd" clip-rule="evenodd" d="M405.387 57.9024H407.499V80.3024H405.387V70.7664C403.915 73.1131 401.76 74.2864 398.923 74.2864C396.64 74.2864 394.688 73.4758 393.067 71.8544C391.467 70.2331 390.667 68.2491 390.667 65.9024C390.667 63.5558 391.467 61.5718 393.067 59.9504C394.688 58.3291 396.64 57.5184 398.923 57.5184C401.76 57.5184 403.915 58.6918 405.387 61.0384V57.9024ZM394.603 70.4144C395.819 71.6304 397.312 72.2384 399.083 72.2384C400.853 72.2384 402.347 71.6304 403.563 70.4144C404.779 69.1771 405.387 67.6731 405.387 65.9024C405.387 64.1318 404.779 62.6384 403.563 61.4224C402.347 60.1851 400.853 59.5664 399.083 59.5664C397.312 59.5664 395.819 60.1851 394.603 61.4224C393.387 62.6384 392.779 64.1318 392.779 65.9024C392.779 67.6731 393.387 69.1771 394.603 70.4144Z" fill="#566775"/>
<path d="M380.188 63.8224C379.548 63.3958 379.228 62.8198 379.228 62.0944C379.228 61.2838 379.559 60.6651 380.22 60.2384C380.881 59.7904 381.671 59.5664 382.588 59.5664C384.529 59.5664 385.809 60.3131 386.428 61.8064L388.188 60.7824C387.719 59.7798 386.993 58.9904 386.012 58.4144C385.031 57.8171 383.889 57.5184 382.588 57.5184C381.009 57.5184 379.697 57.9558 378.652 58.8304C377.628 59.7051 377.116 60.7931 377.116 62.0944C377.116 63.1824 377.436 64.0678 378.076 64.7504C378.716 65.4118 379.495 65.8918 380.412 66.1904C381.329 66.4678 382.247 66.7238 383.164 66.9584C384.081 67.1931 384.86 67.5238 385.5 67.9504C386.14 68.3771 386.46 68.9531 386.46 69.6784C386.46 70.5531 386.108 71.2038 385.404 71.6304C384.7 72.0358 383.825 72.2384 382.78 72.2384C381.713 72.2384 380.785 72.0038 379.996 71.5344C379.228 71.0438 378.695 70.3824 378.396 69.5504L376.604 70.6064C377.031 71.6944 377.777 72.5798 378.844 73.2624C379.932 73.9451 381.244 74.2864 382.78 74.2864C384.487 74.2864 385.873 73.8598 386.94 73.0064C388.028 72.1531 388.572 71.0438 388.572 69.6784C388.572 68.5904 388.252 67.7158 387.612 67.0544C386.972 66.3718 386.193 65.8918 385.276 65.6144C384.359 65.3158 383.441 65.0491 382.524 64.8144C381.607 64.5798 380.828 64.2491 380.188 63.8224Z" fill="#566775"/>
<path d="M151.517 9.08063V0.255005H92.9233L84.3066 8.81802V93.0437L92.9233 101.618H151.517V92.7928H93.1364V55.3812H141.358V46.4937H93.1364V9.08063H151.517Z" fill="#536475"/>
<path d="M8.83045 0.255005H0V93.0437L8.61458 101.618H67.1966V92.7928H8.83045V0.255005Z" fill="#536475"/>
<path fill-rule="evenodd" clip-rule="evenodd" d="M196.495 55.1097L178.247 101.745H168.626L186.862 55.1097H196.495Z" fill="#536475"/>
<path d="M230.319 46.2249H202.588L184.618 0.287354H175.029L196.49 55.1323H224.224L240.964 99.0625L246.795 101.902L249.274 95.8974L230.319 46.2249Z" fill="#FC3259"/>
<path d="M239.797 46.2332L255.171 5.90117L252.686 0L246.865 2.72853L230.275 46.2332H239.797Z" fill="#536475"/>
<path fill-rule="evenodd" clip-rule="evenodd" d="M294.654 46.7804L276.404 0.146484H266.78L285.03 46.7804H294.654Z" fill="#536475"/>
<path d="M328.481 55.6803H300.744L282.775 101.618H273.182L294.649 46.7591H322.377L339.129 2.82822L344.953 0L347.443 6.0091L328.481 55.6803Z" fill="#1CB85C"/>
<path d="M337.955 55.6707L353.336 95.9992L350.851 101.902L345.018 99.1684L328.435 55.6707H337.955Z" fill="#536475"/>
<path d="M432.415 18.9911H437.558C439.921 19.0173 441.633 20.7153 441.612 22.9365C441.612 25.6637 439.218 26.4439 439.218 26.4439L442.037 31.4658H439.84L437.268 26.8344L434.343 26.8172L434.31 31.4335H432.352L432.415 18.9911ZM437.558 25.014C438.785 25.0415 439.696 24.1746 439.696 22.9179C439.696 21.675 438.785 20.8115 437.558 20.8115H434.359V25.014H437.558Z" fill="#536475"/>
<path d="M436.735 36.9283C430.32 36.9015 425.151 31.7359 425.168 25.3645C425.192 18.9141 430.381 13.7664 436.812 13.7829C443.167 13.8097 448.354 18.9918 448.336 25.4491C448.325 31.8143 443.099 36.9283 436.735 36.9283ZM436.812 15.3482C431.259 15.34 426.762 19.8319 426.734 25.348C426.709 30.8539 431.194 35.363 436.735 35.3815C442.19 35.407 446.746 30.9117 446.762 25.4079C446.78 19.8862 442.279 15.3482 436.812 15.3482Z" fill="#536475"/>
<path d="M376.604 18.5627L394.985 0.193054H382.972L376.604 6.55757V18.5627Z" fill="#536475"/>
<path d="M376.604 18.558L394.985 36.9283H382.972L376.604 30.5611V18.558Z" fill="#536475"/>
<path d="M413.362 18.5628L394.984 0.19104H406.995L413.362 6.55762V18.5628Z" fill="#1CB85C"/>
<path d="M413.362 18.5566L394.984 36.9269H406.995L413.362 30.5597V18.5566Z" fill="#FC3259"/>
</svg>
